<?xml version="1.0" encoding="UTF-8"?>
<svg id="Capa_2" data-name="Capa 2" xmlns="http://www.w3.org/2000/svg" viewBox="0 0 546.35 320.98">
  <defs>
    <style>
      .cls-1 {
        fill: #646464;
      }

      .cls-2 {
        fill: #4f4f4f;
      }

      .cls-3 {
        fill: #bbbdbd;
      }

      .cls-4 {
        fill: #babdbc;
      }

      .cls-5 {
        fill: #05aa97;
      }

      .cls-6 {
        fill: #4a4a4a;
      }

      .cls-7 {
        fill: #05aa98;
      }

      .cls-8 {
        fill: #4e4e4e;
      }

      .cls-9 {
        fill: #4d4d4c;
      }

      .cls-10 {
        fill: #494949;
      }

      .cls-11 {
        fill: #06aa97;
      }

      .cls-12 {
        fill: #05a997;
      }

      .cls-13 {
        fill: #4d4d4d;
      }

      .cls-14 {
        fill: #4f4f4e;
      }

      .cls-15 {
        fill: #4c4c4b;
      }

      .cls-16 {
        fill: #05ac99;
      }

      .cls-17 {
        fill: #04a694;
      }

      .cls-18 {
        fill: #4c4c4c;
      }

      .cls-19 {
        fill: #fbfbfb;
      }

      .cls-20 {
        fill: #bbbdbc;
      }

      .cls-21 {
        fill: #73d8c9;
      }

      .cls-22 {
        fill: #fafdfc;
      }

      .cls-23 {
        fill: #04a693;
      }

      .cls-24 {
        fill: #535352;
      }

      .cls-25 {
        fill: #b9bcbb;
      }

      .cls-26 {
        fill: #07a896;
      }

      .cls-27 {
        fill: #c4d1cf;
      }

      .cls-28 {
        fill: #babcbc;
      }

      .cls-29 {
        fill: #515150;
      }

      .cls-30 {
        fill: #484847;
      }

      .cls-31 {
        fill: #04ab98;
      }

      .cls-32 {
        fill: #545453;
      }

      .cls-33 {
        fill: #05a895;
      }

      .cls-34 {
        fill: #464645;
      }

      .cls-35 {
        fill: #fdfdfe;
      }

      .cls-36 {
        fill: #565655;
      }

      .cls-37 {
        fill: #69d6c5;
      }

      .cls-38 {
        fill: #fefefe;
      }

      .cls-39 {
        fill: #67d7c6;
      }

      .cls-40 {
        fill: #76dfd0;
      }

      .cls-41 {
        fill: #fdfefe;
      }

      .cls-42 {
        fill: #fcfdfd;
      }

      .cls-43 {
        fill: #f7f7f7;
      }

      .cls-44 {
        fill: #fdfdfd;
      }

      .cls-45 {
        fill: #6cd7c7;
      }
    </style>
  </defs>
  <g id="Capa_1-2" data-name="Capa 1">
    <g>
      <g>
        <path class="cls-7" d="M32.53,126.75c14.42-1.36,29.27-1.82,43.87-1.48l.9,1.45c.99-.99,4.18-1.36,5.9-1.5,4.54-.35,21.25-.82,25.07.01l.89,1.5c.08-.57.2-1.38.64-1.5,1.57-.41,8.49-.54,8.79,1.5,3.11,0,5.92-.54,8.98.68l-7.17,14.9-18.38.47c-4.44.11-8.42.02-12.82.03l-25.43.04c-5.18,0-9.91.04-15.04,0-6.47-.05-12.74,1.15-19.2-.72l.13-14.86c.39-.74,2.2-.53,2.86-.53Z"/>
        <path class="cls-5" d="M427.7,126.7c.08-.57.21-1.4.64-1.5,1.7-.4,8.39-.54,8.76,1.51,0-.58.14-1.47.51-1.5,6.9-.55,19.2-.59,26,.05,1.86.17,4.11.82,5.87,1.51l.7-1.5c14.74-.23,29.72.03,44.33,1.47.83,0,2.09.14,2.06,1.61l-.32,14.34c-11.18,1.16-22.42,1.61-33.72,1.37-1.59.31-2.47-.06-2.64-1.11-2.03.14-4.03,0-5.99-.43-.07.58-.23,1.45-.65,1.5-2.47.33-8.17.23-10.81.03-2.55.51-4.18.02-4.88-1.49-1.82.04-3.03.54-3.66,1.5-2.25.63-8.44,0-10.01-1.5-.15.58-.39,1.46-.83,1.51-2.43.25-12.97.5-14.91.11-3.04-.63-3.2-.7-5.09-3.17-.54-.71-6.01-12.67-5.87-13.39.61-3.02,6.75-2.87,9.48-2.43l1.02,1.49Z"/>
        <path class="cls-3" d="M514.51,126.74l-45.02.03c-10.43-3.17-20.64-7.05-30.64-11.65-.33,3.4-.41,6.9-.24,10.51l-1.49,1.08h-9.4s-1.51-.85-1.51-.85l-.31-16.96-36.91-18.93-4.44-3.63c-7.54-9.55-16.41-18.12-25.23-26.68,18.02,11.78,36.76,21.84,56.04,31.98,18.5,9.74,36.88,17.99,56.46,25.25,12.52,4.64,24.84,7.61,38.18,9.22,1.53.18,3.6-.89,4.52.62Z"/>
        <path class="cls-20" d="M185.98,60.94l-4.19,3.95c-7.31,6.9-14.15,13.9-20.43,21.77-1.54-.09-3.18.76-4.83,1.66l-20.45,11.07c-5.81,3.15-11.41,6.15-17.65,8.61l.16,18.73h-9.43s-1.43-1.11-1.43-1.11l-.11-10.43-24.3,10.06c-2.32.81-4.24.82-5.74.03-.94.35-1.95.09-3.03-.78-3.41-.14-9.67-1.17-6.32-5.37,24.68-8.08,62.41-26.21,85.45-39.71l32.3-18.49Z"/>
        <path class="cls-25" d="M457.56,142.58c.6,1.46-.04,2-1.49,2.13-.26.45-.48,10.43.04,10.43,1.06-.01,15.65-8.91,18.38-10.63l-.59-1.97,42.34.16c-2.12,1.12-4.52.09-6.95.67-19.96,4.81-38.45,13.68-54.65,26.21-8.25,6.38-14.2,14.21-18.56,23.52-.45.96-1.16,1.11-1.9,1.11,1.32-1.32.76-2.81.26-4.61l-2.63-9.35.34-2.77c7.81-8.61,11.72-12.91,11.72-12.91v-21.99s13.68,0,13.68,0Z"/>
        <polygon class="cls-20" points="234.9 126.66 226.07 126.73 225.6 61.69 234.6 57.81 234.9 126.66"/>
        <path class="cls-4" d="M321.15,126.72h-9.52s-.23-68.62-.23-68.62c3.83.75,5.92,2.28,8.89,3.64l.87,64.98Z"/>
        <polygon class="cls-20" points="277.73 126.71 268.87 126.71 268.43 78.71 277.64 78.75 277.73 126.71"/>
        <path class="cls-20" d="M363.92,126.7h-9.52s-.24-39.83-.24-39.83c3.4,2.96,6.31,6.18,8.92,9.84l.84,29.98Z"/>
        <path class="cls-28" d="M192.18,126.7l-8.85.03-.55-29.9c2.81-3.75,5.57-6.94,9.1-9.82l.3,39.69Z"/>
        <path class="cls-27" d="M68.24,119.14c.44,6.32,6.72,1.14,9.35,6.15,1.91.64,1.68,1.21-.29,1.43l-44.77.03c.62-1.47,2.65-.48,4.2-.65,9.09-.99,17.73-2.45,26.22-5.23l5.28-1.73Z"/>
        <path class="cls-38" d="M427.7,126.7l-9.29.11,5.98,13.52c.67,1.52,2.04,2.38,3.81,2.37l15.69-.11c1.43.58,1.72,1.84,1.7,3.63l-.22,19.23c-5.31,4.58-9.28,9.68-13.55,14.81-9.04-32.13-26.5-67.6-47.28-93.9l7.89,3.52,35.16,18.22.12,18.61Z"/>
        <g>
          <circle class="cls-17" cx="273.08" cy="36.22" r="36.22"/>
          <g>
            <path class="cls-38" d="M284.83,47.7c-8.45-1.94-15.81-2-23.43.16-1.82-7.83-1.74-15.3-.2-23.42,7.69,1.58,15.2,2.08,23.54-.06,1.72,7.5,1.61,15.07.09,23.32Z"/>
            <path class="cls-37" d="M255.26,49.29l-6.64,4.17c-7.42-10.23-7.38-23.96-.2-34.66l6.81,3.69c-1.76,8.89-1.94,17.4.03,26.81Z"/>
            <path class="cls-37" d="M297.75,53.18c-2.6-.82-4.68-2.26-6.86-3.58,1.84-9.23,1.7-17.93-.08-27.14l6.89-3.69c6.69,10.41,7.46,23.72.05,34.41Z"/>
            <path class="cls-41" d="M277.93,63.77c-2.85,3.31-6.98,3.14-9.69.19-2.56-2.79-4.29-6.03-5.31-10.3,6.48-1.73,12.99-1.88,19.96-.18-.43,3.71-2.34,7.25-4.96,10.28Z"/>
            <path class="cls-41" d="M283.2,18.35c-6.72,2.04-13.59,1.96-20.36-.07,1.16-4.3,3.15-7.62,6.04-10.35,2.63-2.48,6.17-2.33,8.71.26s4.32,5.98,5.61,10.16Z"/>
            <path class="cls-39" d="M256.91,15.52c-.79.89-3.32-.8-3.57-1.66,2.29-2.15,4.2-3.64,6.75-4.66-.76,2.05-1.25,4.13-3.18,6.32Z"/>
            <path class="cls-45" d="M293.17,58.19c-2.17,2.34-4.45,3.68-7.27,4.71,1.51-2.11,2.11-4.04,2.97-6.76,1.62.44,2.78,1.07,4.3,2.04Z"/>
            <path class="cls-21" d="M260.06,62.96c-2.89-.93-4.72-2.98-6.83-4.87l3.57-2,3.26,6.88Z"/>
            <path class="cls-40" d="M292.84,14.07c-1.24,1.31-2.46,1.63-3.96,1.7l-2.28-6.02c2.42.89,3.84,2.1,6.24,4.32Z"/>
          </g>
        </g>
        <path class="cls-41" d="M109.16,126.74l-31.86-.02.29-1.43c3.22-.22,6.1-1.92,9.27-3.22l22.55-9.23c-.87,5.65.13,10.32-.24,13.89Z"/>
        <path class="cls-44" d="M469.48,126.77l-32.38-.06-.09-13.96,30.21,12.48c1,.41,1.82.9,2.26,1.54Z"/>
        <path class="cls-42" d="M473.9,142.53c1.7,1.29,3.87.66,6.45.86-9.03,4.28-17.16,8.91-25.73,14.48l-.06-14.46c1.39-.13,2.26-.34,2.99-.83l16.34-.05Z"/>
        <path class="cls-16" d="M183.33,126.73c.55-2.38,8.08-2.31,8.85-.03l33.89.03c.53-2.39,8.05-2.34,8.83-.07l33.98.05c.56-2.38,8.09-2.28,8.85,0h33.9c.08-.57.21-1.39.65-1.49,1.73-.41,8.46-.56,8.88,1.5h33.25c.08-.58.21-1.39.65-1.51,1.59-.42,8.54-.55,8.87,1.49l20.5.13,7.91,15.75-236.14.12c-.98,0-1.45-.43-1.67-.66s-.24-1.22,0-1.67l7.11-13.54,21.7-.09Z"/>
        <g>
          <path class="cls-31" d="M359.3,59.66c9.03,6.47,16.92,14.15,23.96,22.74.4.49.63,1.14.84,1.81s.34,1.41.43,2.14l4.91,3.94c18.63,25.75,33.72,55.12,42.69,85.66.19.64.15,1.35.09,2.09s-.22,1.48-.41,2.21l1.66.38c1.36,3.11,4.21,11.57.71,13.58l-15.08-.03c-15.75-56.31-45.99-115.37-100.98-141.1-1.31-.61-4.66-1.02-4.63-2.8.62-4.97,2.38-9.93,2.19-15.08,16.72,5,29.77,15.43,43.6,24.47Z"/>
          <path class="cls-31" d="M161.36,86.67c.11-.75.25-1.49.49-2.2s.48-1.36.9-1.87c6.93-8.38,14.48-15.78,23.22-21.66l7.43-5.54c11.29-8.42,23.18-15.45,36.76-20.26.54,5.72,1.31,10.9,2.85,15.93-58.01,23.57-90.35,85.84-106.11,143.01l-16.52-.15c9.74-37.97,26.4-76.49,50.98-107.28Z"/>
        </g>
      </g>
      <path class="cls-33" d="M324.11,275.8c-3.67.95-7.01.55-10.72.15l.02-18.27-20.76-.14-.16,18.45-10.7.04v-45s10.72,0,10.72,0l.17,17.38,20.54-.1.14-17.3,10.82-.03-.07,44.81Z"/>
      <path class="cls-26" d="M546.35,275.38c-3.3,1.46-7.14.86-10.68.58l-.34-18.38h-19.88s-.2,18.41-.2,18.41l-10.71.06.02-45.01h10.73s.08,17.38.08,17.38h20.07s.18-17.41.18-17.41l10.57-.02.16,44.38Z"/>
      <path class="cls-6" d="M252.29,256.99l-20.61.28-.09,10.25,24.18.12c.68,2.89.69,5.56-.04,8.44l-34.88.08-.15-45.22,34.32-.04c.5,2.93.54,5.53-.13,8.57l-23.21.24v9.23s20.41-.02,20.41-.02c.46,2.67.46,4.52.19,8.08Z"/>
      <path class="cls-6" d="M201.75,265.75l.04-12.78,9.82.18v18.17c-5.32,4.21-11.61,5.39-18.07,5.63-13.37.5-24.22-8.74-25.12-21.53-.93-13.2,8.44-24.05,22.12-25.17,8.01-.66,15.91,1.25,21.58,7.38-1.94,2.69-4.09,4.6-6.69,6.34-5.93-5.11-14.46-6.42-20.92-1.65s-6.73,13.53-2.67,19.49c4.32,6.34,13.35,7.79,19.92,3.93Z"/>
      <path class="cls-23" d="M365.92,257.2l-20.8.02c-.28,3.64-.52,6.82.15,10.29l24.35.04.17,8.88-35.5-.24-.05-45.24,34.49.03v8.35s-23.6.46-23.6.46c-.46,3.32-.31,6.06-.04,9.11l20.8.04.03,8.24Z"/>
      <path class="cls-11" d="M484.69,275.88c-3.8.7-7.01.3-10.66.06l-.2-36.15-13.81-.14c-1.07-2.79-.91-5.63-.37-8.77h39.16c.74,2.93.56,5.78.23,8.84h-14.46s.11,36.15.11,36.15Z"/>
      <path class="cls-12" d="M461.97,267.33c.43,3.28.45,5.72-.06,9.06l-33.19-.17-.02-45.17,10.64.11.22,36.17h22.42Z"/>
      <rect class="cls-6" x="96.98" y="230.84" width="10.88" height="45.5"/>
      <path class="cls-24" d="M55.04,320.15l-.39-13.63-4.59,6.84c-1.17,1.75-.96,4.33-3.76,5.02l-7.04-11.68c-1.44,5.79.69,11.68-.74,13.48-.36.46-2.16.46-2.15-.38l.19-18.49c0-.82,2.24-.12,2.73.67l7.66,12.57,7.55-12.55c.59-.98,2.85-1.41,2.86-.41l.25,18.52c-.41.29-1.75.41-2.57.04Z"/>
      <path class="cls-30" d="M352.28,320.59l-.51-14.04-7.66,12.24-8.03-12.19-.1,12.83c0,.71-.57.99-.68,1.24-.2.43-1.85.39-1.82-.34l.68-20.4,10,14.84,7.99-13.5c.27-.45,1.14-.47,1.4-.39.44.15.98.55.99,1.48l.14,15.7c.01,1.46-.88,3.01-2.4,2.53Z"/>
      <path class="cls-34" d="M462.32,319.13c.01.94-.72,1.45-.99,1.57-.36.17-.97.12-1.51-.53l-11.62-13.76-.31,13.14c-.03,1.08-2.36,1.34-2.36.8l.23-20.11,13.61,15.02.32-13.88c.02-.78,2.38-.8,2.39,0l.23,17.75Z"/>
      <path class="cls-36" d="M78.29,311.78l-8.61.08c-.58,2.26-.63,4.06.08,6.4l10.97.11c.3.01.4,1.11.19,1.46-.26.41-.79.81-1.73.8l-12.48-.16v-19.53s13.36.05,13.36.05c.35.14.47,1.75.09,2.08l-10.48.19c-.58,2.06-.53,4.17.06,6.28l9.15.1c.84,0,.86,2.14-.6,2.15Z"/>
      <path class="cls-9" d="M433.86,312l-7.34-.32c-.72,2.03-.64,4.09-.3,6.51l10.87.11c.68,0,.9,1.51.12,2.24l-13.62.03-.19-19.48,13.66-.15c.11.66.15,1.2.02,2.2h-10.47c-.82,1.89-.69,4.08-.23,6.34l7.89-.05c1.08,0,1.82.34,1.61,1.45-.11.55-.48,1.18-2.04,1.11Z"/>
      <path class="cls-14" d="M411.88,316.67c.75-3.3-.61-5.42,1.06-6.03,1.92-.69,2.45,4.98,1.4,7.82-.61,1.66-3.2,1.69-4.62,2-5.84,1.3-11.08-1.8-12.54-7.11-1.51-5.51,1.94-11.32,7.93-12.44s11.57,2.55,8.8,3.96c-1.1.56-7.55-4.75-12.55.9-2.64,2.98-2.53,7.49.49,10.43,2.34,2.27,7.65,3.51,10.03.47Z"/>
      <path class="cls-29" d="M265.93,301.39c0-.5,1.87-.76,2.55-.33v12.39c0,4.28-2.88,6.88-6.88,7.43-5.24.72-9.83-2.58-9.73-8.1l.21-11.69c.39-.25,1.44-.32,1.73-.23.44.14.82.78.82,1.7v10.2c0,3.7,2.64,5.76,5.9,5.79,3.35.03,5.36-2.41,5.37-6.12l.03-11.04Z"/>
      <path class="cls-29" d="M322.89,310.9c1.82.56,2.9,2.28,3.12,3.94.19,1.42-.6,3.56-2.25,4.57-3.94,2.4-9.65,1.9-13.3-1.46,2.91-1.64,4.94.55,7.58.76,2.23.18,5.91-1.03,5.44-3.5-.72-3.78-10.41-2.51-11.86-6.98-.75-2.3-.17-5.15,2.19-6.37,3.55-1.84,8.44-1.67,10.96.8.36.35-.53,1.84-.98,1.63-2.55-1.2-5.31-1.86-8.15-.6-1.16.51-1.71,1.63-1.62,2.69.08.92.73,2.02,1.99,2.41l6.88,2.13Z"/>
      <path class="cls-15" d="M143,304c-.55,3.04-7.16-4.32-12.68,1.46-2.57,2.69-2.6,7.2-.2,10.26,4.61,5.89,11.9.63,11.92.63.55-.03,1.4,1.76.81,2.23-4.78,3.83-12.33,2.95-15.76-2.35-2.72-4.21-1.72-9.7,1.43-12.6,5.96-5.48,14.9-1.96,14.47.37Z"/>
      <path class="cls-2" d="M485.19,316.7c1.2-.95,2.72.99,1.91,1.75-2.62,2.48-6.66,2.78-10.17,1.89-3.86-.98-6.35-4.27-7.01-7.74s.64-7.54,3.8-9.82c4.29-3.09,10.19-2.86,13.9.8-.04.76-1.75,1.71-2.17,1.39-3.23-2.45-7.52-2.49-10.45.15-2.93,2.65-3.27,7.3-.63,10.56,2.41,2.98,7.11,3.95,10.82,1.01Z"/>
      <path class="cls-8" d="M509.87,301.07c-1.39,3.57-3.59,6.82-5.9,10.17-2.54,3.7-.85,7.74-1.97,8.96-3.14,3.41-1.77-5.46-2.81-7.15l-6.25-10.24c-.29-.48-.31-1.26-.27-1.6.04-.31,1.31-.65,1.72-.41l6.86,10.61,5.58-9.31c.44-.74,1.36-1.63,3.03-1.03Z"/>
      <path class="cls-13" d="M212.48,319.18c0,1.42-.7,1.52-1.23,1.57-.64.05-1.35-.34-1.36-1.28l-.19-16.09-5.71-.04c-.85,0-1.1-1.1-.91-1.45.17-.32.71-.77,1.42-.78l14.32-.11c.44,0,.71,1.85.09,2.05-2.08.69-4.17.19-6.39.3l-.05,15.84Z"/>
      <path class="cls-9" d="M187.15,318.25c1.26.01,1.16,2.39.15,2.37l-12.6-.26v-19.37s2.33.02,2.33.02l.24,17.12,9.88.11Z"/>
      <rect class="cls-1" x="115.08" y="301" width="2.82" height="19.63" transform="translate(-.86 .32) rotate(-.16)"/>
      <path class="cls-32" d="M303.46,318.91c0,.98-.83,1.53-1.14,1.76-.29.22-1.26.16-1.45-.59l-.15-19.02c.85-.26,1.34-.24,1.81-.17s.9.76.9,1.63l.04,16.38Z"/>
      <g>
        <path class="cls-6" d="M163.51,252.32c.86,12.57-7.62,22.21-19.72,23.46l-25.84.61-.1-45.48,25.19.32c11.27,1.05,20.28,9.39,20.46,21.08Z"/>
        <path class="cls-38" d="M142.69,266.8c-4.72,1.01-9.21.45-13.84.43v-27.32s13.46.34,13.46.34c6.5,1.26,10.37,6.92,10.51,12.95s-3.34,12.15-10.13,13.6Z"/>
      </g>
      <g>
        <path class="cls-6" d="M78.97,275.97c-4.03-3.04-5.82-8.41-9.04-12.18-3.12-.74-6.33-.46-9.68-.2l-.26,12.46c-3.6.41-6.89.36-10.57-.14l-.07-44.99,24.61.32c7.67.1,13.58,5.75,14.86,12.62,1.36,7.28-1.84,14.17-8.78,17.55l9.92,14.66c-3.32,0-7.27.75-10.99-.1Z"/>
        <path class="cls-44" d="M78.27,247.13c0,7.86-8.87,8.12-18.02,7.56l-.02-14.84,12.34.32c3.73.1,5.7,3.73,5.7,6.95Z"/>
      </g>
      <g>
        <path class="cls-17" d="M408.4,266.9l-21.35.02-3.95,9.59-11.03-.53,20.2-44.93,11.35.04,20.47,44.9c-4.18.68-7.71.34-11.53.13l-4.17-9.22Z"/>
        <polygon class="cls-22" points="405.09 258.54 390.62 258.48 397.82 241.98 405.09 258.54"/>
      </g>
      <g>
        <path class="cls-2" d="M107.56,310.17c.31,4.94-2.43,9.72-7.23,9.91l-11.35.45-.12-19.35c9.3-1.1,18.13-.15,18.71,8.99Z"/>
        <path class="cls-44" d="M100.5,317.61c-2.99,1.05-6.07.75-8.91.47l-.06-14.76,7.66.25c3.22.11,5.4,3.25,5.77,5.91.45,3.26-.78,6.83-4.45,8.12Z"/>
      </g>
      <g>
        <path class="cls-14" d="M238.74,320.03c-4.6,1.75-9,.75-11.83-2.12s-3.75-7.5-2.01-11.56c1.57-3.66,6-6.09,10.57-5.61,4.89.51,8.51,3.84,9.25,8.42.66,4.07-1.48,9.16-5.99,10.88Z"/>
        <circle class="cls-44" cx="234.4" cy="310.8" r="7.76"/>
      </g>
      <g>
        <path class="cls-14" d="M292.73,320.14c-5.04,1.49-3.56-6.92-10.81-5.86-.45.07-1.44-.1-1.73.04-1.27.61,1.43,6.05-2.84,6.56l-.27-19.73,9.21-.1c3.38-.04,5.82,2.18,6.55,4.98.85,3.26-.72,6.09-3.9,8.13l3.79,5.98Z"/>
        <path class="cls-19" d="M287.91,311.54c-2.67,1.03-5.45.65-7.96.42-.39-3.1-.36-5.65.11-8.66l6.73.2c1.86.06,3.28,1.62,3.59,2.98.4,1.77-.28,4.21-2.47,5.06Z"/>
      </g>
      <g>
        <path class="cls-18" d="M164.97,319.42c-.19-.83-.77-3.12-1.66-3.36-3.85-.37-7.44-.56-11.29.08-.06,2.55-1.05,4.93-3.96,4.06l8.09-18.51c.39-.88,1.69-.97,2.3-.77.71.23,1.27.69,1.71,1.65l7.34,15.92c.38.83.46,1.77-.26,2.11-.9.43-1.96.13-2.27-1.18Z"/>
        <path class="cls-43" d="M162.27,313.2c-3.09,1.58-6.04.91-8.23-.11,1.45-3.73,1.67-6.62,4-8.97l4.23,9.09Z"/>
      </g>
      <g>
        <path class="cls-10" d="M387.25,315.71l-9.96.24c-1.42.03-1.63,3.12-2.83,4.32-.5.51-1.81.43-2.36-.31l7.77-17.26c.53-1.17,1.25-1.81,2.25-1.86,1.08-.05,1.69.69,2.2,1.83l7.82,17.48c-.72.47-2.32.5-2.65-.14l-2.24-4.31Z"/>
        <path class="cls-43" d="M386.19,313.15c-2.38.71-5.34,1.25-8.25.35l4.03-9.37c2.02,2.52,2.55,4.88,4.22,9.02Z"/>
      </g>
      <g>
        <path class="cls-6" d="M35.09,252.63c7.2,3.77,9.62,12.65,4.51,18.76-2.75,3.29-7.57,4.64-11.85,4.66l-27.75.12v-45.32s22.48.06,22.48.06c8.58.02,16.61,2.75,17.44,10.31.5,4.55-.8,8.29-4.83,11.41Z"/>
        <path class="cls-35" d="M26.49,267.63l-15.77.14-.1-10.57c9.94-.38,21.26-1.62,20.88,5.65-.12,2.25-1.9,4.75-5.01,4.78Z"/>
        <path class="cls-44" d="M24.85,248.73l-13.81.33-.21-9.68,14.32.22c2.59.04,4.24,2.43,4.28,4.54.05,2.26-1.6,4.52-4.58,4.59Z"/>
      </g>
    </g>
  </g>
</svg>